:FULLY-SPECIFIED
:FORCE-ALL-JOINTS-BE-3DOF
:DEGREES
243
root 9.20787 16.2939 -2.60233 10.0865 -6.30754 -3.1885
lfemur -44.8936 9.49443 -21.585
ltibia 38.515 0 0
lfoot -3.62462 7.43946 0
ltoes -3.31259 0 0
rfemur 12.0502 2.82687 22.3113
rtibia 24.865 0 0
rfoot 5.50341 4.24237 0
rtoes -16.185 0 0
lowerback -7.6313 2.39136 0.300506
upperback -2.15395 3.02101 2.16598
thorax 1.93982 1.52731 2.35205
lowerneck -19.0273 -5.79888 -13.4371
upperneck 17.061 -7.32053 14.5588
head 9.60233 -2.79745 6.32851
lclavicle -7.75819e-15 -7.62806e-15 0
lhumerus -46.9896 -6.59231 90.5312
lradius 21.3079 0 0
lwrist -1.81376 0 0
lhand -7.75329 -23.2502 0
lfingers 7.12502 0 0
lthumb 18.1466 5.92959 0
rclavicle -7.75819e-15 -7.62806e-15 0
rhumerus -44.5985 10.6915 -87.9033
rradius 43.9268 0 0
rwrist -22.4452 0 0
rhand -31.8554 -32.4497 0
rfingers 7.12502 0 0
rthumb -5.10909 -62.3665 0
244
root 9.24654 16.3218 -2.44248 9.96376 -6.47658 -2.74392
lfemur -44.1466 9.45297 -22.1661
ltibia 38.6646 0 0
lfoot -4.38342 7.34123 0
ltoes -2.52808 0 0
rfemur 10.9429 2.39785 21.5165
rtibia 27.6848 0 0
rfoot 6.75805 3.80537 0
rtoes -16.6613 0 0
lowerback -7.40414 2.35649 -0.034765
upperback -2.18854 3.0093 2.04312
thorax 1.76775 1.52204 2.39986
lowerneck -19.2224 -5.78558 -13.4341
upperneck 17.1942 -7.27896 14.4961
head 9.67422 -2.77602 6.31502
lclavicle -8.95132e-15 -8.86824e-15 0
lhumerus -46.4805 -6.58666 90.3792
lradius 21.2514 0 0
lwrist -2.0663 0 0
lhand -7.79339 -23.1378 0
lfingers 7.12502 0 0
lthumb 18.108 6.04531 0
rclavicle -8.95132e-15 -8.86824e-15 0
rhumerus -44.7634 10.4717 -87.817
rradius 43.2381 0 0
rwrist -22.2806 0 0
rhand -31.9823 -32.0681 0
rfingers 7.12502 0 0
rthumb -5.23163 -61.982 0
245
root 9.28482 16.35 -2.28377 9.83662 -6.63496 -2.30382
lfemur -43.3781 9.40014 -22.7365
ltibia 38.7872 0 0
lfoot -5.15344 7.24999 0
ltoes -1.76955 0 0
rfemur 9.80683 1.97355 20.7388
rtibia 30.4829 0 0
rfoot 7.94199 3.35627 0
rtoes -17.1259 0 0
lowerback -7.17814 2.31728 -0.364904
upperback -2.21907 2.99126 1.92384
thorax 1.60111 1.5135 2.4482
lowerneck -19.4153 -5.77022 -13.4293
upperneck 17.3285 -7.23493 14.4314
head 9.74572 -2.75368 6.30097
lclavicle -1.01146e-14 -1.00913e-14 0
lhumerus -45.9502 -6.59363 90.2302
lradius 21.203 0 0
lwrist -2.30325 0 0
lhand -7.84203 -23.0306 0
lfingers 7.12502 0 0
lthumb 18.0612 6.15644 0
rclavicle -1.01146e-14 -1.00913e-14 0
rhumerus -44.9207 10.2546 -87.7225
rradius 42.5686 0 0
rwrist -22.1251 0 0
rhand -32.1052 -31.6786 0
rfingers 7.12502 0 0
rthumb -5.35028 -61.5896 0
246
root 9.32254 16.3782 -2.12637 9.70633 -6.78111 -1.87302
lfemur -42.593 9.33864 -23.2917
ltibia 38.8821 0 0
lfoot -5.92371 7.16529 0
ltoes -1.04637 0 0
rfemur 8.64962 1.55864 19.987
rtibia 33.2329 0 0
rfoot 9.03465 2.89727 0
rtoes -17.5741 0 0
lowerback -6.95619 2.27329 -0.686285
upperback -2.24487 2.96594 1.80959
thorax 1.4424 1.50121 2.49665
lowerneck -19.6044 -5.75233 -13.4221
upperneck 17.4635 -7.18815 14.3649
head 9.81635 -2.7303 6.28634
lclavicle -1.12171e-14 -1.12792e-14 0
lhumerus -45.3991 -6.61407 90.0843
lradius 21.163 0 0
lwrist -2.52303 0 0
lhand -7.89865 -22.9303 0
lfingers 7.12502 0 0
lthumb 18.0067 6.2613 0
rclavicle -1.12171e-14 -1.12792e-14 0
rhumerus -45.0701 10.0428 -87.6213
rradius 41.9265 0 0
rwrist -21.9807 0 0
rhand -32.2216 -31.2852 0
rfingers 7.12502 0 0
rthumb -5.46274 -61.1935 0
247
root 9.35948 16.4062 -1.97044 9.57414 -6.91342 -1.45636
lfemur -41.7957 9.27118 -23.8272
ltibia 38.949 0 0
lfoot -6.68326 7.08671 0
ltoes -0.367885 0 0
rfemur 7.47889 1.15779 19.2698
rtibia 35.9082 0 0
rfoot 10.0154 2.43056 0
rtoes -18.0016 0 0
lowerback -6.74118 2.22414 -0.995281
upperback -2.26525 2.93239 1.70183
thorax 1.29413 1.48467 2.54478
lowerneck -19.7882 -5.73146 -13.4118
upperneck 17.5986 -7.1383 14.2969
head 9.88559 -2.70575 6.27114
lclavicle -1.22276e-14 -1.24139e-14 0
lhumerus -44.8277 -6.64881 89.9413
lradius 21.1317 0 0
lwrist -2.72403 0 0
lhand -7.96266 -22.8385 0
lfingers 7.12502 0 0
lthumb 17.945 6.35823 0
rclavicle -1.22276e-14 -1.24139e-14 0
rhumerus -45.2109 9.83852 -87.5146
rradius 41.3196 0 0
rwrist -21.8493 0 0
rhand -32.3293 -30.8919 0
rfingers 7.12502 0 0
rthumb -5.56671 -60.7978 0
248
root 9.39547 16.4336 -1.81613 9.44132 -7.0303 -1.05868
lfemur -40.991 9.20047 -24.3385
ltibia 38.9874 0 0
lfoot -7.42111 7.01384 0
ltoes 0.256544 0 0
rfemur 6.30227 0.775656 18.5961
rtibia 38.4823 0 0
rfoot 10.8638 1.95834 0
rtoes -18.4037 0 0
lowerback -6.53601 2.16942 -1.28826
upperback -2.27953 2.88966 1.60202
thorax 1.15881 1.46338 2.59214
lowerneck -19.9652 -5.70714 -13.3978
upperneck 17.7334 -7.08509 14.2275
head 9.95298 -2.6799 6.25536
lclavicle -1.31152e-14 -1.34774e-14 0
lhumerus -44.2363 -6.69868 89.8011
lradius 21.1092 0 0
lwrist -2.90466 0 0
lhand -8.0335 -22.7568 0
lfingers 7.12502 0 0
lthumb 17.8768 6.44554 0
rclavicle -1.31152e-14 -1.34774e-14 0
rhumerus -45.3427 9.64422 -87.4038
rradius 40.7558 0 0
rwrist -21.7326 0 0
rhand -32.4258 -30.5029 0
rfingers 7.12502 0 0
rthumb -5.65989 -60.4066 0
249
root 9.4303 16.4601 -1.66359 9.30914 -7.13015 -0.684802
lfemur -40.1836 9.1292 -24.821
ltibia 38.9969 0 0
lfoot -8.12629 6.94623 0
ltoes 0.817559 0 0
rfemur 5.12739 0.416916 17.9745
rtibia 40.9286 0 0
rfoot 11.5591 1.4828 0
rtoes -18.7758 0 0
lowerback -6.34356 2.10871 -1.56161
upperback -2.28702 2.83682 1.51161
thorax 1.03893 1.43684 2.63833
lowerneck -20.1338 -5.67889 -13.3793
upperneck 17.8674 -7.02823 14.1568
head 10.018 -2.65264 6.23897
lclavicle -1.38489e-14 -1.44516e-14 0
lhumerus -43.6254 -6.76451 89.6637
lradius 21.0959 0 0
lwrist -3.06333 0 0
lhand -8.11057 -22.6868 0
lfingers 7.12502 0 0
lthumb 17.8026 6.52155 0
rclavicle -1.38489e-14 -1.44516e-14 0
rhumerus -45.4649 9.46226 -87.2903
rradius 40.2431 0 0
rwrist -21.6325 0 0
rhand -32.5088 -30.1221 0
rfingers 7.12502 0 0
rthumb -5.73999 -60.0239 0
250
root 9.46378 16.4855 -1.51299 9.17884 -7.21137 -0.339572
lfemur -39.3781 9.06009 -25.2703
ltibia 38.9771 0 0
lfoot -8.78784 6.88347 0
ltoes 1.3058 0 0
rfemur 3.96188 0.0862322 17.4139
rtibia 43.2208 0 0
rfoot 12.0808 1.00613 0
rtoes -19.1135 0 0
lowerback -6.16672 2.04162 -1.81169
upperback -2.28704 2.7729 1.43206
thorax 0.937005 1.40457 2.6829
lowerneck -20.2926 -5.64627 -13.3558
upperneck 18.0001 -6.9674 14.0852
head 10.0802 -2.62382 6.22198
lclavicle -1.43975e-14 -1.53186e-14 0
lhumerus -42.9955 -6.84715 89.5291
lradius 21.0918 0 0
lwrist -3.19843 0 0
lhand -8.19331 -22.6302 0
lfingers 7.12502 0 0
lthumb 17.723 6.58459 0
rclavicle -1.43975e-14 -1.53186e-14 0
rhumerus -45.577 9.29501 -87.1754
rradius 39.7896 0 0
rwrist -21.5509 0 0
rhand -32.5758 -29.7537 0
rfingers 7.12502 0 0
rthumb -5.80471 -59.654 0
251
root 9.49572 16.5092 -1.36447 9.05171 -7.27238 -0.0278203
lfemur -38.5791 8.99584 -25.6818
ltibia 38.9274 0 0
lfoot -9.39477 6.82513 0
ltoes 1.71192 0 0
rfemur 2.81334 -0.211728 16.923
rtibia 45.3322 0 0
rfoot 12.4084 0.530539 0
rtoes -19.4122 0 0
lowerback -6.00839 1.96773 -2.03487
upperback -2.27892 2.69696 1.36482
thorax 0.85554 1.36606 2.72543
lowerneck -20.44 -5.6088 -13.3266
upperneck 18.131 -6.90231 14.0127
head 10.139 -2.59332 6.20437
lclavicle -1.47301e-14 -1.60603e-14 0
lhumerus -42.347 -6.94743 89.397
lradius 21.0973 0 0
lwrist -3.30838 0 0
lhand -8.28113 -22.5887 0
lfingers 7.12502 0 0
lthumb 17.6384 6.63297 0
rclavicle -1.47301e-14 -1.60603e-14 0
rhumerus -45.6784 9.14486 -87.0605
rradius 39.403 0 0
rwrist -21.4896 0 0
rhand -32.6245 -29.4017 0
rfingers 7.12502 0 0
rthumb -5.85174 -59.3008 0
252
root 9.52592 16.5312 -1.21821 8.92899 -7.31157 0.245618
lfemur -37.7915 8.93915 -26.051
ltibia 38.8475 0 0
lfoot -9.93611 6.77078 0
ltoes 2.02655 0 0
rfemur 1.68943 -0.472297 16.5106
rtibia 47.2364 0 0
rfoot 12.5212 0.0582114 0
rtoes -19.6673 0 0
lowerback -5.87146 1.88665 -2.22754
upperback -2.26196 2.60806 1.31137
thorax 0.79704 1.32081 2.76548
lowerneck -20.5744 -5.56601 -13.291
upperneck 18.2596 -6.83266 13.9396
head 10.1941 -2.56102 6.18613
lclavicle -1.48157e-14 -1.66586e-14 0
lhumerus -41.6803 -7.06618 89.2676
lradius 21.1125 0 0
lwrist -3.39158 0 0
lhand -8.37345 -22.5637 0
lfingers 7.12502 0 0
lthumb 17.5495 6.66503 0
rclavicle -1.48157e-14 -1.66586e-14 0
rhumerus -45.7687 9.01419 -86.9468
rradius 39.0914 0 0
rwrist -21.4505 0 0
rhand -32.6526 -29.0701 0
rfingers 7.12502 0 0
rthumb -5.87879 -58.9686 0
253
root 9.55419 16.551 -1.07435 8.81196 -7.32735 0.475909
lfemur -37.0197 8.89274 -26.3734
ltibia 38.7369 0 0
lfoot -10.4009 6.72 0
ltoes 2.24033 0 0
rfemur 0.597748 -0.690808 16.1854
rtibia 48.9068 0 0
rfoot 12.3986 -0.408656 0
rtoes -19.8742 0 0
lowerback -5.75882 1.79797 -2.38606
upperback -2.23549 2.50525 1.27314
thorax 0.764009 1.26834 2.80263
lowerneck -20.6944 -5.51746 -13.2483
upperneck 18.3854 -6.75815 13.866
head 10.2448 -2.52678 6.16726
lclavicle -1.46231e-14 -1.70955e-14 0
lhumerus -40.9959 -7.20423 89.1407
lradius 21.1377 0 0
lwrist -3.44643 0 0
lhand -8.4697 -22.5571 0
lfingers 7.12502 0 0
lthumb 17.4568 6.67907 0
rclavicle -1.46231e-14 -1.70955e-14 0
rhumerus -45.8473 8.90538 -86.8357
rradius 38.8627 0 0
rwrist -21.4355 0 0
rhand -32.6575 -28.763 0
rfingers 7.12502 0 0
rthumb -5.88357 -58.6613 0
254
root 9.581 16.5697 -0.933287 8.69296 -7.32232 0.668652
lfemur -36.2466 8.84673 -26.6529
ltibia 38.5926 0 0
lfoot -10.8198 6.68145 0
ltoes 2.3469 0 0
rfemur -0.500917 -0.878975 15.9476
rtibia 50.4284 0 0
rfoot 12.0148 -0.894351 0
rtoes -20.0323 0 0
lowerback -5.66373 1.69985 -2.512
upperback -2.197 2.3863 1.25017
thorax 0.755043 1.20753 2.83762
lowerneck -20.8029 -5.46054 -13.197
upperneck 18.5106 -6.67487 13.7891
head 10.2918 -2.48889 6.14714
lclavicle -1.41778e-14 -1.74106e-14 0
lhumerus -40.2752 -7.35919 89.0163
lradius 21.1731 0 0
lwrist -3.47752 0 0
lhand -8.57529 -22.573 0
lfingers 7.12502 0 0
lthumb 17.3551 6.67135 0
rclavicle -1.41778e-14 -1.74106e-14 0
rhumerus -45.9084 8.81606 -86.7171
rradius 38.7201 0 0
rwrist -21.4502 0 0
rhand -32.6385 -28.4551 0
rfingers 7.12502 0 0
rthumb -5.86523 -58.3538 0
255
root 9.60696 16.5886 -0.795146 8.56436 -7.30047 0.834128
lfemur -35.4528 8.79 -26.8981
ltibia 38.4126 0 0
lfoot -11.2307 6.66256 0
ltoes 2.35239 0 0
rfemur -1.6471 -1.05177 15.7867
rtibia 51.9009 0 0
rfoot 11.3736 -1.42094 0
rtoes -20.1466 0 0
lowerback -5.57734 1.59132 -2.61098
upperback -2.1453 2.25056 1.24072
thorax 0.766013 1.13808 2.87157
lowerneck -20.9039 -5.39373 -13.1366
upperneck 18.6377 -6.58004 13.7065
head 10.3361 -2.44612 6.12528
lclavicle -1.35375e-14 -1.7657e-14 0
lhumerus -39.5027 -7.52812 88.8944
lradius 21.2184 0 0
lwrist -3.49045 0 0
lhand -8.69525 -22.6128 0
lfingers 7.12502 0 0
lthumb 17.2396 6.64088 0
rclavicle -1.35375e-14 -1.7657e-14 0
rhumerus -45.9479 8.74149 -86.5813
rradius 38.6567 0 0
rwrist -21.497 0 0
rhand -32.5978 -28.1213 0
rfingers 7.12502 0 0
rthumb -5.82588 -58.0208 0
